<svg xmlns="http://www.w3.org/2000/svg" viewBox="0 0 1024 1024" fill="white"><path d="M 200,605 Z"/><path d="M 194,605 Z"/><path d="M 203,603 Z"/><path d="M 189,601 L 190,602 L 189,603 L 189,604 L 189,603 L 190,602 L 191,603 L 191,605 L 190,606 L 191,605 L 192,605 L 191,604 L 191,603 Z"/><path d="M 207,600 Z"/><path d="M 186,600 L 187,601 Z"/><path d="M 187,597 Z"/><path d="M 185,592 L 185,593 L 186,592 Z"/><path d="M 168,591 L 169,591 Z"/><path d="M 186,590 Z"/><path d="M 144,590 L 145,590 Z"/><path d="M 139,590 L 141,590 Z"/><path d="M 134,590 Z"/><path d="M 131,590 L 132,590 Z"/><path d="M 128,590 L 129,590 Z"/><path d="M 126,590 Z"/><path d="M 123,590 L 124,590 Z"/><path d="M 120,590 Z"/><path d="M 115,590 L 118,590 Z"/><path d="M 112,590 Z"/><path d="M 110,590 Z"/><path d="M 107,590 L 108,590 Z"/><path d="M 96,590 L 105,590 Z"/><path d="M 91,590 L 92,590 Z"/><path d="M 80,590 L 84,590 Z"/><path d="M 78,590 Z"/><path d="M 72,590 Z"/><path d="M 67,590 L 69,590 Z"/><path d="M 64,590 L 65,590 Z"/><path d="M 59,590 Z"/><path d="M 56,590 Z"/><path d="M 53,590 L 54,590 Z"/><path d="M 215,589 L 216,589 Z"/><path d="M 183,589 Z"/><path d="M 136,589 L 136,590 L 137,590 L 137,589 Z"/><path d="M 181,588 Z"/><path d="M 225,587 L 224,588 L 224,589 L 225,588 Z"/><path d="M 46,587 L 45,588 Z"/><path d="M 183,586 L 183,587 Z"/><path d="M 178,585 Z"/><path d="M 43,585 Z"/><path d="M 247,580 Z"/><path d="M 40,578 L 41,579 L 41,578 Z"/><path d="M 40,571 Z"/><path d="M 40,565 Z"/><path d="M 240,562 L 240,566 L 241,565 L 243,567 L 242,568 L 241,568 L 245,572 L 246,571 L 245,570 L 245,569 L 244,569 L 243,568 L 244,567 L 246,567 L 243,567 L 242,566 L 242,565 L 241,565 L 240,564 Z"/><path d="M 40,561 L 40,563 Z"/><path d="M 40,559 Z"/><path d="M 250,555 Z"/><path d="M 40,552 L 40,557 Z"/><path d="M 259,550 L 260,551 Z"/><path d="M 960,549 L 962,549 L 963,550 L 962,549 Z"/><path d="M 912,549 Z"/><path d="M 705,549 L 706,549 Z"/><path d="M 697,549 L 699,549 Z"/><path d="M 695,549 Z"/><path d="M 633,549 L 634,549 Z"/><path d="M 626,549 Z"/><path d="M 399,549 Z"/><path d="M 393,549 L 395,549 Z"/><path d="M 391,549 Z"/><path d="M 385,549 Z"/><path d="M 329,549 Z"/><path d="M 321,549 Z"/><path d="M 40,549 Z"/><path d="M 972,548 L 973,548 Z"/><path d="M 970,548 L 969,549 L 970,549 Z"/><path d="M 916,548 Z"/><path d="M 908,548 L 907,549 L 905,549 L 907,549 L 908,548 L 909,548 Z"/><path d="M 901,548 Z"/><path d="M 709,548 Z"/><path d="M 637,548 Z"/><path d="M 617,548 Z"/><path d="M 572,548 L 573,548 Z"/><path d="M 556,548 L 557,548 Z"/><path d="M 388,548 L 389,548 Z"/><path d="M 332,548 L 333,548 Z"/><path d="M 314,548 Z"/><path d="M 958,547 L 960,547 Z"/><path d="M 911,547 L 912,547 Z"/><path d="M 903,547 L 904,547 Z"/><path d="M 858,547 Z"/><path d="M 856,547 Z"/><path d="M 850,547 Z"/><path d="M 816,547 Z"/><path d="M 802,547 Z"/><path d="M 754,547 Z"/><path d="M 750,547 Z"/><path d="M 746,547 Z"/><path d="M 744,547 Z"/><path d="M 742,547 Z"/><path d="M 714,547 Z"/><path d="M 706,547 Z"/><path d="M 704,547 Z"/><path d="M 698,547 L 699,547 Z"/><path d="M 642,547 Z"/><path d="M 634,547 Z"/><path d="M 623,547 L 625,547 Z"/><path d="M 613,547 L 614,547 Z"/><path d="M 565,547 L 567,547 Z"/><path d="M 561,547 L 563,547 Z"/><path d="M 552,547 Z"/><path d="M 510,547 Z"/><path d="M 478,547 Z"/><path d="M 472,547 Z"/><path d="M 438,547 L 440,547 Z"/><path d="M 410,547 Z"/><path d="M 400,547 L 401,547 L 402,548 L 405,548 L 402,548 L 401,547 Z"/><path d="M 392,547 L 394,547 Z"/><path d="M 384,547 Z"/><path d="M 338,547 Z"/><path d="M 325,547 L 330,547 Z"/><path d="M 316,547 L 317,548 L 318,547 L 322,547 Z"/><path d="M 310,547 L 309,548 Z"/><path d="M 974,546 Z"/><path d="M 953,546 L 952,547 Z"/><path d="M 917,546 L 918,547 Z"/><path d="M 897,546 L 896,547 L 897,548 L 896,547 Z"/><path d="M 691,546 Z"/><path d="M 616,546 L 617,546 Z"/><path d="M 611,546 Z"/><path d="M 573,546 Z"/><path d="M 407,546 Z"/><path d="M 387,546 Z"/><path d="M 343,546 Z"/><path d="M 312,546 L 312,547 Z"/><path d="M 306,546 L 306,547 L 307,547 Z"/><path d="M 894,545 Z"/><path d="M 756,545 Z"/><path d="M 688,545 L 687,546 L 688,547 L 687,546 Z"/><path d="M 642,545 Z"/><path d="M 341,545 Z"/><path d="M 308,545 Z"/><path d="M 40,545 L 40,547 Z"/><path d="M 344,544 Z"/><path d="M 583,543 L 584,543 Z"/><path d="M 503,543 Z"/><path d="M 472,543 Z"/><path d="M 377,543 Z"/><path d="M 356,543 Z"/><path d="M 347,543 Z"/><path d="M 300,543 L 301,543 Z"/><path d="M 40,543 Z"/><path d="M 723,542 L 724,543 L 725,542 L 724,543 Z"/><path d="M 605,542 L 604,543 Z"/><path d="M 420,542 L 420,543 L 421,542 Z"/><path d="M 937,541 L 938,542 L 939,542 L 938,542 Z"/><path d="M 821,541 L 820,542 L 820,543 L 820,542 Z"/><path d="M 588,541 Z"/><path d="M 263,541 Z"/><path d="M 40,541 Z"/><path d="M 939,540 Z"/><path d="M 796,540 Z"/><path d="M 356,540 Z"/><path d="M 354,540 L 354,541 L 353,542 L 354,542 Z"/><path d="M 937,539 Z"/><path d="M 820,539 Z"/><path d="M 602,539 Z"/><path d="M 503,539 L 503,541 Z"/><path d="M 589,538 L 588,539 Z"/><path d="M 372,538 Z"/><path d="M 261,538 Z"/><path d="M 936,537 Z"/><path d="M 795,537 L 795,538 Z"/><path d="M 723,537 Z"/><path d="M 503,537 Z"/><path d="M 420,537 Z"/><path d="M 925,536 L 925,537 Z"/><path d="M 725,536 L 725,538 L 724,539 L 724,540 L 725,539 L 726,540 L 727,539 L 726,540 L 725,539 Z"/><path d="M 602,536 L 602,537 Z"/><path d="M 537,536 Z"/><path d="M 450,536 Z"/><path d="M 369,536 L 368,537 L 369,537 Z"/><path d="M 356,536 L 356,537 L 357,537 Z"/><path d="M 823,535 Z"/><path d="M 756,535 Z"/><path d="M 591,535 Z"/><path d="M 521,535 L 521,541 Z"/><path d="M 926,534 Z"/><path d="M 724,534 Z"/><path d="M 288,534 L 289,535 Z"/><path d="M 983,533 Z"/><path d="M 928,533 Z"/><path d="M 793,533 Z"/><path d="M 659,533 Z"/><path d="M 603,533 Z"/><path d="M 601,533 Z"/><path d="M 521,533 Z"/><path d="M 472,533 Z"/><path d="M 417,533 Z"/><path d="M 257,533 L 258,534 L 258,535 L 260,535 L 260,534 L 259,535 Z"/><path d="M 40,533 L 40,539 Z"/><path d="M 932,532 Z"/><path d="M 878,532 Z"/><path d="M 844,532 Z"/><path d="M 756,532 L 756,533 Z"/><path d="M 402,532 L 403,532 Z"/><path d="M 974,531 Z"/><path d="M 965,531 L 964,532 L 965,531 L 966,532 Z"/><path d="M 926,531 Z"/><path d="M 924,531 Z"/><path d="M 713,531 Z"/><path d="M 701,531 L 700,532 L 698,532 L 701,532 L 702,531 Z"/><path d="M 604,531 L 605,532 Z"/><path d="M 600,531 Z"/><path d="M 407,531 L 408,531 Z"/><path d="M 400,531 Z"/><path d="M 356,531 L 356,534 Z"/><path d="M 332,531 L 333,531 Z"/><path d="M 317,531 L 319,531 Z"/><path d="M 258,531 Z"/><path d="M 961,530 L 962,531 L 961,532 L 960,532 L 962,532 L 962,531 Z"/><path d="M 931,530 Z"/><path d="M 910,530 Z"/><path d="M 716,530 Z"/><path d="M 710,530 Z"/><path d="M 705,530 L 706,531 L 705,532 L 704,532 L 708,532 L 707,532 Z"/><path d="M 697,530 L 699,530 Z"/><path d="M 630,530 Z"/><path d="M 625,530 L 624,531 L 621,531 L 624,531 L 625,530 L 626,531 L 626,530 Z"/><path d="M 405,530 Z"/><path d="M 403,530 Z"/><path d="M 393,530 L 394,530 Z"/><path d="M 321,530 L 322,530 L 324,532 L 323,531 L 324,530 L 325,530 L 326,531 L 326,532 L 326,531 L 325,530 L 324,530 L 323,531 L 322,530 Z"/><path d="M 314,530 Z"/><path d="M 980,529 L 981,529 L 982,530 L 981,529 Z"/><path d="M 956,529 L 957,529 L 958,530 L 957,531 L 958,530 L 959,530 L 958,530 L 957,529 Z"/><path d="M 923,529 Z"/><path d="M 901,529 Z"/><path d="M 694,529 L 695,530 L 695,531 L 695,530 Z"/><path d="M 620,529 Z"/><path d="M 614,529 Z"/><path d="M 602,529 Z"/><path d="M 472,529 L 472,531 Z"/><path d="M 418,529 Z"/><path d="M 410,529 L 411,530 Z"/><path d="M 408,529 Z"/><path d="M 397,529 L 398,530 L 397,531 L 396,531 L 395,532 L 394,532 L 396,532 L 398,530 Z"/><path d="M 356,529 Z"/><path d="M 312,529 Z"/><path d="M 261,529 Z"/><path d="M 983,528 Z"/><path d="M 974,528 L 972,530 L 971,529 L 970,529 L 968,531 L 969,532 L 970,532 L 969,532 L 968,531 L 969,530 L 972,530 L 973,529 L 974,529 Z"/><path d="M 965,528 Z"/><path d="M 925,528 L 925,529 L 926,529 L 926,528 Z"/><path d="M 920,528 L 921,529 Z"/><path d="M 916,528 L 914,530 L 912,530 L 912,531 L 911,532 L 906,532 L 912,532 L 912,531 L 913,530 L 915,530 L 916,529 L 918,529 L 919,530 L 918,529 L 918,528 Z"/><path d="M 913,528 Z"/><path d="M 876,528 Z"/><path d="M 793,528 Z"/><path d="M 721,528 L 720,529 L 718,529 L 720,529 L 721,528 L 722,529 L 722,530 L 723,529 L 722,528 Z"/><path d="M 612,528 Z"/><path d="M 604,528 Z"/><path d="M 521,528 Z"/><path d="M 503,528 L 503,535 Z"/><path d="M 412,528 Z"/><path d="M 405,528 Z"/><path d="M 390,528 L 390,529 Z"/><path d="M 336,528 L 338,528 Z"/><path d="M 332,528 L 331,529 L 330,529 L 329,530 L 328,530 L 330,530 L 332,528 L 333,529 L 334,529 L 334,528 L 333,529 Z"/><path d="M 310,528 Z"/><path d="M 40,528 L 40,531 Z"/><path d="M 668,527 Z"/><path d="M 610,527 Z"/><path d="M 363,527 Z"/><path d="M 964,526 Z"/><path d="M 931,526 Z"/><path d="M 531,526 Z"/><path d="M 873,525 L 874,526 L 875,525 L 874,526 Z"/><path d="M 792,525 Z"/><path d="M 756,525 L 756,527 Z"/><path d="M 688,525 Z"/><path d="M 669,525 Z"/><path d="M 595,525 L 596,526 L 596,527 L 596,526 Z"/><path d="M 521,525 Z"/><path d="M 360,525 Z"/><path d="M 308,525 Z"/><path d="M 40,525 Z"/><path d="M 597,524 Z"/><path d="M 503,524 L 503,525 Z"/><path d="M 988,523 Z"/><path d="M 986,523 Z"/><path d="M 984,523 Z"/><path d="M 967,523 Z"/><path d="M 930,523 L 929,524 L 929,525 L 929,524 Z"/><path d="M 756,523 Z"/><path d="M 722,523 Z"/><path d="M 694,523 Z"/><path d="M 692,523 L 692,524 Z"/><path d="M 420,523 Z"/><path d="M 418,523 Z"/><path d="M 388,523 L 388,524 Z"/><path d="M 386,523 Z"/><path d="M 336,523 Z"/><path d="M 282,523 L 281,524 L 281,526 L 282,526 L 283,525 L 282,525 L 281,524 Z"/><path d="M 641,522 L 641,524 Z"/><path d="M 503,522 Z"/><path d="M 280,522 Z"/><path d="M 245,522 L 245,524 Z"/><path d="M 980,521 L 987,521 Z"/><path d="M 977,521 Z"/><path d="M 969,521 L 975,521 Z"/><path d="M 948,521 L 949,521 Z"/><path d="M 874,521 L 874,522 Z"/><path d="M 643,521 L 643,523 Z"/><path d="M 493,521 Z"/><path d="M 362,521 L 362,522 Z"/><path d="M 356,521 L 356,527 Z"/><path d="M 40,521 Z"/><path d="M 990,520 Z"/><path d="M 829,520 L 828,521 L 828,523 L 826,525 L 825,525 L 827,525 L 827,524 L 828,523 L 828,522 L 829,521 Z"/><path d="M 790,520 L 789,521 Z"/><path d="M 641,520 Z"/><path d="M 529,520 L 530,521 L 530,522 L 530,521 Z"/><path d="M 521,520 L 521,521 Z"/><path d="M 503,520 Z"/><path d="M 450,520 Z"/><path d="M 894,519 Z"/><path d="M 872,519 Z"/><path d="M 598,519 L 596,521 L 597,521 L 598,520 Z"/><path d="M 336,519 Z"/><path d="M 990,518 Z"/><path d="M 810,518 Z"/><path d="M 788,518 Z"/><path d="M 531,518 L 531,519 Z"/><path d="M 529,518 Z"/><path d="M 521,518 Z"/><path d="M 423,518 Z"/><path d="M 892,517 L 892,518 Z"/><path d="M 336,517 Z"/><path d="M 451,516 L 451,517 Z"/><path d="M 356,516 L 356,517 Z"/><path d="M 990,515 Z"/><path d="M 873,515 L 873,516 L 872,517 L 873,516 Z"/><path d="M 806,515 Z"/><path d="M 666,515 L 666,519 Z"/><path d="M 361,515 L 361,518 Z"/><path d="M 300,515 L 300,517 L 301,516 Z"/><path d="M 279,515 Z"/><path d="M 244,515 Z"/><path d="M 786,514 L 786,515 L 787,516 L 786,515 Z"/><path d="M 529,514 L 529,516 Z"/><path d="M 893,513 L 893,514 Z"/><path d="M 808,513 Z"/><path d="M 598,513 Z"/><path d="M 336,513 L 336,515 Z"/><path d="M 990,512 L 990,513 Z"/><path d="M 361,512 L 361,513 Z"/><path d="M 298,512 Z"/><path d="M 40,512 L 40,517 Z"/><path d="M 811,511 L 810,512 L 810,514 L 809,515 L 808,515 L 809,516 L 809,515 L 810,514 L 811,515 L 810,514 L 810,512 L 811,511 L 812,512 Z"/><path d="M 757,511 Z"/><path d="M 529,511 L 529,512 Z"/><path d="M 278,511 Z"/><path d="M 989,510 Z"/><path d="M 806,510 Z"/><path d="M 633,510 L 632,511 Z"/><path d="M 627,510 L 626,511 L 627,510 L 628,510 Z"/><path d="M 598,510 Z"/><path d="M 454,510 Z"/><path d="M 276,510 L 276,511 Z"/><path d="M 872,509 L 873,510 L 872,511 L 873,511 L 873,510 Z"/><path d="M 811,509 Z"/><path d="M 666,509 L 666,511 Z"/><path d="M 663,509 L 662,510 L 661,510 L 660,511 L 661,511 L 662,512 L 662,513 L 662,512 L 661,511 Z"/><path d="M 623,509 L 625,509 Z"/><path d="M 531,509 L 531,511 Z"/><path d="M 521,509 L 521,513 Z"/><path d="M 450,509 L 450,513 Z"/><path d="M 362,509 L 362,510 L 363,511 L 363,519 L 363,511 L 362,510 Z"/><path d="M 247,509 L 246,510 L 247,511 L 246,510 Z"/><path d="M 756,508 Z"/><path d="M 621,508 Z"/><path d="M 472,508 L 472,509 Z"/><path d="M 276,508 Z"/><path d="M 990,507 Z"/><path d="M 928,507 L 929,508 L 928,509 L 929,510 L 929,517 L 929,508 Z"/><path d="M 872,507 Z"/><path d="M 812,507 Z"/><path d="M 758,507 Z"/><path d="M 623,507 Z"/><path d="M 617,507 L 617,508 Z"/><path d="M 452,507 L 452,508 Z"/><path d="M 356,507 L 356,511 Z"/><path d="M 874,506 Z"/><path d="M 814,506 Z"/><path d="M 805,506 Z"/><path d="M 472,506 Z"/><path d="M 40,506 L 40,509 Z"/><path d="M 664,505 Z"/><path d="M 503,505 L 503,509 Z"/><path d="M 453,505 Z"/><path d="M 930,504 L 930,505 Z"/><path d="M 727,504 Z"/><path d="M 657,504 L 658,505 L 659,505 L 658,505 Z"/><path d="M 597,504 L 596,505 L 596,506 L 596,505 Z"/><path d="M 532,504 Z"/><path d="M 529,504 L 530,505 L 530,506 L 530,504 Z"/><path d="M 521,504 L 521,506 Z"/><path d="M 451,504 Z"/><path d="M 362,504 L 362,507 L 362,505 L 363,504 L 364,505 L 363,504 Z"/><path d="M 815,503 L 814,504 Z"/><path d="M 669,503 Z"/><path d="M 296,503 L 296,506 Z"/><path d="M 246,503 L 246,504 Z"/><path d="M 988,502 Z"/><path d="M 804,502 Z"/><path d="M 802,502 Z"/><path d="M 597,502 Z"/><path d="M 595,502 Z"/><path d="M 469,502 Z"/><path d="M 356,502 L 356,503 Z"/><path d="M 896,501 Z"/><path d="M 668,501 Z"/><path d="M 531,501 Z"/><path d="M 529,501 Z"/><path d="M 521,501 Z"/><path d="M 40,501 Z"/><path d="M 989,500 Z"/><path d="M 876,500 Z"/><path d="M 874,500 L 874,501 Z"/><path d="M 816,500 Z"/><path d="M 781,500 Z"/><path d="M 764,500 Z"/><path d="M 670,500 Z"/><path d="M 364,500 L 365,501 Z"/><path d="M 914,499 Z"/><path d="M 900,499 L 901,500 Z"/><path d="M 801,499 Z"/><path d="M 726,499 Z"/><path d="M 532,499 Z"/><path d="M 458,499 Z"/><path d="M 356,499 L 356,500 Z"/><path d="M 276,499 L 276,501 L 275,502 L 276,501 Z"/><path d="M 931,498 L 930,499 L 931,498 L 932,499 Z"/><path d="M 920,498 L 921,498 L 922,499 L 921,500 L 920,500 L 920,501 L 921,500 L 922,501 L 922,499 L 923,498 L 924,499 L 923,498 L 922,499 L 921,498 Z"/><path d="M 916,498 L 917,499 L 917,500 L 918,499 L 917,499 Z"/><path d="M 875,498 Z"/><path d="M 669,498 Z"/><path d="M 650,498 L 651,498 Z"/><path d="M 456,498 Z"/><path d="M 360,498 Z"/><path d="M 40,498 L 40,499 Z"/><path d="M 988,497 Z"/><path d="M 933,497 Z"/><path d="M 918,497 Z"/><path d="M 902,497 Z"/><path d="M 767,497 L 772,497 L 773,498 L 772,499 L 773,500 L 774,499 L 774,497 L 773,498 L 772,497 Z"/><path d="M 466,497 L 465,498 L 461,498 L 462,498 L 463,499 L 464,498 L 465,498 L 466,499 L 465,498 Z"/><path d="M 458,497 Z"/><path d="M 356,497 Z"/><path d="M 911,496 L 914,496 Z"/><path d="M 909,496 Z"/><path d="M 905,496 L 907,496 Z"/><path d="M 800,496 Z"/><path d="M 670,496 Z"/><path d="M 651,496 Z"/><path d="M 646,496 Z"/><path d="M 533,496 L 535,496 Z"/><path d="M 521,496 L 521,499 Z"/><path d="M 503,496 L 503,503 Z"/><path d="M 490,496 Z"/><path d="M 422,496 L 422,497 L 421,498 L 422,497 Z"/><path d="M 320,496 L 320,509 Z"/><path d="M 934,495 Z"/><path d="M 726,495 Z"/><path d="M 642,495 Z"/><path d="M 604,495 Z"/><path d="M 368,495 Z"/><path d="M 245,495 L 245,498 L 245,497 L 246,496 L 246,495 Z"/><path d="M 40,495 Z"/><path d="M 925,494 L 925,497 Z"/><path d="M 779,494 Z"/><path d="M 776,494 Z"/><path d="M 639,494 Z"/><path d="M 276,494 L 276,495 Z"/><path d="M 986,493 L 985,494 Z"/><path d="M 799,493 Z"/><path d="M 503,493 Z"/><path d="M 297,493 L 298,494 L 299,493 Z"/><path d="M 817,492 Z"/><path d="M 603,492 Z"/><path d="M 277,492 Z"/><path d="M 245,492 Z"/><path d="M 819,490 Z"/><path d="M 298,490 L 299,491 Z"/><path d="M 245,490 Z"/><path d="M 635,489 Z"/><path d="M 503,489 L 503,491 Z"/><path d="M 279,489 Z"/><path d="M 629,488 L 630,489 L 630,488 Z"/><path d="M 604,488 L 604,489 Z"/><path d="M 40,488 L 40,493 Z"/><path d="M 521,487 L 521,490 Z"/><path d="M 602,486 L 602,487 Z"/><path d="M 245,486 L 245,487 L 246,488 L 246,487 Z"/><path d="M 819,485 L 819,486 L 820,487 L 819,486 Z"/><path d="M 817,485 Z"/><path d="M 848,484 L 848,544 L 862,544 L 862,484 Z"/><path d="M 846,484 L 846,486 L 845,487 L 844,486 L 844,485 L 844,486 L 845,487 L 845,488 L 846,489 L 846,512 L 845,513 L 846,514 L 846,528 L 845,529 L 846,530 L 846,543 Z"/><path d="M 775,484 L 775,490 L 775,487 L 776,486 L 775,485 Z"/><path d="M 521,484 Z"/><path d="M 451,484 Z"/><path d="M 303,484 Z"/><path d="M 890,483 L 889,484 Z"/><path d="M 818,483 Z"/><path d="M 779,483 L 779,485 L 780,486 L 780,488 L 779,489 L 778,489 L 777,488 L 778,489 L 778,491 L 778,490 L 780,488 L 781,489 L 781,491 L 780,492 L 781,491 L 782,492 L 782,493 L 783,494 L 783,497 L 784,498 L 784,500 L 785,501 L 785,502 L 786,503 L 786,505 L 787,506 L 787,507 L 788,508 L 788,510 L 789,511 L 789,513 L 788,514 L 789,513 L 790,514 L 790,516 L 791,517 L 791,518 L 792,519 L 792,521 L 793,522 L 793,523 L 794,524 L 794,526 L 795,527 L 795,529 L 794,530 L 795,529 L 796,530 L 796,531 L 797,532 L 797,534 L 798,535 L 798,537 L 799,538 L 799,540 L 798,541 L 799,540 L 800,541 L 800,543 L 801,543 L 802,544 L 815,544 L 816,543 L 817,543 L 818,544 L 817,543 L 817,541 L 818,540 L 818,538 L 819,537 L 819,536 L 820,535 L 822,537 L 820,535 L 820,533 L 821,532 L 822,533 L 821,532 L 821,530 L 822,529 L 823,530 L 822,529 L 822,527 L 823,526 L 823,524 L 824,523 L 824,522 L 825,521 L 825,519 L 826,518 L 827,519 L 826,518 L 826,516 L 827,515 L 827,514 L 828,513 L 828,511 L 829,510 L 829,508 L 830,507 L 830,506 L 831,505 L 832,506 L 831,505 L 831,502 L 832,501 L 832,500 L 833,499 L 833,497 L 834,496 L 834,495 L 835,494 L 836,495 L 835,494 L 835,492 L 836,491 L 836,489 L 837,488 L 837,486 L 838,485 L 838,484 L 823,484 L 822,485 L 822,488 L 821,489 L 821,491 L 820,492 L 820,494 L 819,495 L 818,494 L 819,495 L 819,497 L 818,498 L 816,496 L 816,495 L 816,496 L 818,498 L 818,501 L 817,502 L 817,504 L 816,505 L 816,507 L 815,508 L 815,509 L 814,510 L 813,509 L 814,510 L 814,513 L 813,514 L 813,516 L 812,517 L 812,519 L 811,520 L 811,522 L 810,523 L 809,522 L 809,520 L 808,520 L 807,519 L 806,520 L 805,519 L 805,517 L 804,516 L 804,513 L 805,512 L 804,513 L 803,512 L 803,510 L 805,508 L 803,510 L 802,509 L 802,507 L 801,506 L 801,504 L 800,503 L 800,501 L 799,500 L 799,498 L 798,497 L 798,495 L 797,494 L 797,492 L 796,491 L 796,488 L 797,487 L 796,488 L 795,487 L 795,486 L 794,485 L 794,484 L 781,484 L 780,483 Z"/><path d="M 682,483 Z"/><path d="M 602,483 Z"/><path d="M 546,483 Z"/><path d="M 509,483 L 508,484 L 505,484 L 505,544 L 519,544 L 519,484 L 512,484 L 511,483 Z"/><path d="M 975,482 Z"/><path d="M 920,482 Z"/><path d="M 902,482 L 901,483 L 898,483 L 897,484 L 895,484 L 894,485 L 893,485 L 892,486 L 891,486 L 890,487 L 889,487 L 888,486 L 889,487 L 887,489 L 886,489 L 885,488 L 884,489 L 883,488 L 880,491 L 882,493 L 882,494 L 879,497 L 878,496 L 879,497 L 879,498 L 878,499 L 877,498 L 878,499 L 878,501 L 877,502 L 877,503 L 876,504 L 876,507 L 875,508 L 875,519 L 876,520 L 876,523 L 877,524 L 877,526 L 878,527 L 878,529 L 876,531 L 875,530 L 876,531 L 878,529 L 880,531 L 880,532 L 882,534 L 882,535 L 881,536 L 880,535 L 882,537 L 881,538 L 881,539 L 882,539 L 883,540 L 885,538 L 886,538 L 889,541 L 888,542 L 889,541 L 890,541 L 891,542 L 892,542 L 893,543 L 895,543 L 896,544 L 898,544 L 899,545 L 915,545 L 916,544 L 919,544 L 920,543 L 921,543 L 922,542 L 923,542 L 924,543 L 923,542 L 924,541 L 924,540 L 923,539 L 923,535 L 922,534 L 922,531 L 921,531 L 920,532 L 918,532 L 917,531 L 918,532 L 917,533 L 914,533 L 913,534 L 905,534 L 904,533 L 902,533 L 901,532 L 902,531 L 901,532 L 900,532 L 899,531 L 898,531 L 897,530 L 899,528 L 898,529 L 897,528 L 896,529 L 893,526 L 893,525 L 894,524 L 893,525 L 892,524 L 892,523 L 893,522 L 892,523 L 891,522 L 891,520 L 890,519 L 890,509 L 891,508 L 892,509 L 892,510 L 893,511 L 892,510 L 892,509 L 891,508 L 891,505 L 892,504 L 892,503 L 894,501 L 894,500 L 896,498 L 897,498 L 899,496 L 900,496 L 901,495 L 903,495 L 904,494 L 915,494 L 916,495 L 919,495 L 920,496 L 922,496 L 922,492 L 923,491 L 923,488 L 924,487 L 923,486 L 923,485 L 924,484 L 923,485 L 922,485 L 921,484 L 919,484 L 918,483 L 914,483 L 913,482 Z"/><path d="M 896,482 Z"/><path d="M 841,482 L 840,483 L 840,484 L 840,483 Z"/><path d="M 766,482 L 765,483 L 763,483 L 762,484 L 761,484 L 759,486 L 758,486 L 757,485 L 758,484 L 757,485 L 754,485 L 755,485 L 757,487 L 754,490 L 753,490 L 752,489 L 752,484 L 738,484 L 738,543 L 739,544 L 753,544 L 753,512 L 754,511 L 755,512 L 755,518 L 755,512 L 754,511 L 754,507 L 755,506 L 755,505 L 756,504 L 756,503 L 757,502 L 758,503 L 757,502 L 757,501 L 759,499 L 760,500 L 759,499 L 761,497 L 762,497 L 763,496 L 765,496 L 766,495 L 773,495 L 773,483 L 772,482 Z"/><path d="M 736,482 Z"/><path d="M 694,482 L 693,483 L 690,483 L 689,484 L 687,484 L 686,483 L 687,484 L 686,485 L 685,485 L 684,484 L 685,485 L 683,487 L 682,487 L 680,485 L 682,487 L 674,495 L 674,496 L 673,497 L 673,498 L 672,499 L 671,498 L 672,499 L 672,501 L 671,502 L 671,504 L 670,505 L 670,509 L 669,510 L 668,509 L 668,507 L 667,506 L 668,507 L 668,509 L 669,510 L 669,519 L 668,520 L 668,521 L 668,520 L 669,519 L 670,520 L 670,523 L 671,524 L 671,526 L 672,527 L 672,529 L 671,530 L 672,529 L 673,530 L 673,531 L 672,532 L 673,531 L 676,534 L 676,535 L 675,536 L 674,535 L 673,535 L 672,534 L 673,535 L 673,536 L 674,537 L 675,536 L 676,537 L 677,536 L 679,538 L 677,540 L 679,538 L 680,539 L 681,539 L 683,541 L 682,542 L 683,541 L 684,541 L 685,542 L 684,543 L 685,542 L 686,542 L 687,543 L 689,543 L 690,544 L 692,544 L 693,545 L 711,545 L 712,546 L 711,545 L 712,544 L 714,544 L 715,543 L 717,543 L 718,544 L 717,543 L 718,542 L 719,542 L 720,543 L 719,542 L 720,541 L 721,541 L 722,540 L 722,539 L 721,538 L 721,536 L 720,535 L 720,533 L 719,532 L 719,531 L 718,531 L 717,532 L 715,532 L 714,533 L 710,533 L 709,534 L 697,534 L 696,533 L 694,533 L 693,532 L 692,532 L 690,530 L 691,529 L 690,528 L 689,529 L 686,526 L 686,524 L 685,523 L 685,522 L 684,521 L 684,520 L 685,519 L 686,519 L 688,521 L 726,521 L 688,521 L 687,520 L 688,519 L 725,519 L 726,518 L 726,506 L 725,505 L 725,501 L 724,500 L 724,498 L 723,497 L 723,496 L 722,495 L 722,494 L 723,493 L 722,494 L 719,491 L 719,490 L 721,488 L 719,490 L 717,488 L 718,487 L 717,488 L 716,488 L 713,485 L 714,484 L 713,485 L 712,485 L 711,484 L 709,484 L 708,483 L 705,483 L 704,482 Z"/><path d="M 579,482 L 578,483 L 579,482 L 580,483 L 581,483 L 580,482 Z"/><path d="M 553,482 L 554,483 L 553,484 L 551,484 L 550,483 L 551,484 L 550,485 L 549,485 L 548,486 L 547,486 L 546,485 L 547,486 L 545,488 L 544,488 L 543,489 L 542,488 L 538,492 L 539,493 L 539,494 L 537,496 L 537,497 L 536,498 L 536,499 L 535,500 L 535,501 L 534,502 L 533,501 L 534,502 L 534,505 L 533,506 L 533,522 L 532,523 L 533,522 L 534,523 L 534,525 L 535,526 L 535,528 L 536,529 L 536,530 L 535,531 L 536,530 L 538,532 L 538,533 L 545,540 L 544,541 L 545,540 L 546,540 L 548,542 L 550,542 L 551,543 L 552,543 L 553,544 L 552,545 L 553,544 L 555,544 L 556,545 L 571,545 L 572,544 L 575,544 L 576,545 L 575,544 L 576,543 L 577,543 L 578,544 L 577,543 L 578,542 L 579,542 L 580,543 L 579,542 L 580,541 L 581,541 L 582,540 L 583,541 L 582,540 L 590,532 L 591,533 L 590,532 L 590,531 L 591,530 L 592,531 L 591,530 L 591,529 L 592,528 L 593,529 L 592,528 L 592,527 L 593,526 L 593,524 L 594,523 L 594,519 L 595,518 L 595,508 L 594,507 L 594,504 L 593,503 L 593,501 L 592,500 L 592,499 L 591,498 L 591,497 L 590,496 L 590,495 L 591,494 L 590,495 L 586,491 L 586,490 L 587,489 L 588,490 L 587,489 L 586,490 L 585,489 L 584,489 L 582,487 L 583,486 L 582,487 L 581,487 L 580,486 L 579,486 L 578,485 L 577,485 L 576,484 L 575,484 L 574,483 L 571,483 L 570,482 L 558,482 L 557,483 L 554,483 Z"/><path d="M 457,482 Z"/><path d="M 972,481 Z"/><path d="M 967,481 Z"/><path d="M 864,481 Z"/><path d="M 847,481 Z"/><path d="M 819,481 Z"/><path d="M 774,481 L 775,482 L 776,482 L 777,483 L 777,484 L 777,482 L 776,481 L 775,482 Z"/><path d="M 764,481 Z"/><path d="M 714,481 Z"/><path d="M 706,481 Z"/><path d="M 692,481 Z"/><path d="M 680,481 L 680,482 Z"/><path d="M 572,481 Z"/><path d="M 556,481 Z"/><path d="M 549,481 L 551,481 Z"/><path d="M 522,481 Z"/><path d="M 474,481 Z"/><path d="M 406,481 Z"/><path d="M 404,481 Z"/><path d="M 974,480 Z"/><path d="M 969,480 Z"/><path d="M 960,480 L 961,480 Z"/><path d="M 944,480 L 946,480 L 947,481 L 946,482 L 945,482 L 946,482 L 947,481 L 948,481 L 949,480 L 950,481 L 950,482 L 951,483 L 950,484 L 949,484 L 948,485 L 947,485 L 946,486 L 945,486 L 944,485 L 945,486 L 942,489 L 941,489 L 940,488 L 938,490 L 937,489 L 938,490 L 936,492 L 937,491 L 938,492 L 938,493 L 936,495 L 936,496 L 935,497 L 935,498 L 934,499 L 934,500 L 933,501 L 933,502 L 932,503 L 930,501 L 929,501 L 930,501 L 932,503 L 932,506 L 931,507 L 931,521 L 932,522 L 932,524 L 933,525 L 933,527 L 934,528 L 934,529 L 935,530 L 935,531 L 934,532 L 935,531 L 936,532 L 936,533 L 937,534 L 936,535 L 937,534 L 942,539 L 941,540 L 942,541 L 943,540 L 944,540 L 946,542 L 945,543 L 946,542 L 948,542 L 949,543 L 950,543 L 951,544 L 950,545 L 951,544 L 955,544 L 956,545 L 971,545 L 972,544 L 976,544 L 977,543 L 979,543 L 980,544 L 979,543 L 980,542 L 981,542 L 982,543 L 981,542 L 982,541 L 983,541 L 983,540 L 986,537 L 986,536 L 986,537 L 984,539 L 983,538 L 983,537 L 984,536 L 983,537 L 982,536 L 982,535 L 981,534 L 981,532 L 980,531 L 979,531 L 977,529 L 979,531 L 978,532 L 977,532 L 976,533 L 972,533 L 971,534 L 959,534 L 958,533 L 956,533 L 955,532 L 954,532 L 952,530 L 954,528 L 953,529 L 950,526 L 951,525 L 951,522 L 952,521 L 967,521 L 952,521 L 949,524 L 950,523 L 951,524 L 951,525 L 949,527 L 947,525 L 947,524 L 946,523 L 946,520 L 947,519 L 986,519 L 987,518 L 987,506 L 986,505 L 986,500 L 987,499 L 986,500 L 985,499 L 985,497 L 983,495 L 983,494 L 982,493 L 982,492 L 981,491 L 982,490 L 981,491 L 977,487 L 976,487 L 974,485 L 975,484 L 974,485 L 973,485 L 972,484 L 973,483 L 972,484 L 970,484 L 969,483 L 970,482 L 969,483 L 966,483 L 965,482 L 955,482 L 954,481 L 953,481 L 954,481 L 955,482 L 954,483 L 951,483 L 950,482 L 950,481 L 951,480 L 950,481 L 949,480 L 948,481 L 947,481 L 946,480 Z"/><path d="M 926,480 Z"/><path d="M 917,480 L 916,481 L 917,480 L 919,480 Z"/><path d="M 909,480 Z"/><path d="M 907,480 Z"/><path d="M 897,480 Z"/><path d="M 835,480 Z"/><path d="M 832,480 L 833,480 Z"/><path d="M 830,480 Z"/><path d="M 823,480 L 824,480 Z"/><path d="M 817,480 L 817,481 L 816,482 L 816,483 L 816,482 L 817,481 Z"/><path d="M 790,480 L 791,480 L 792,481 L 793,480 L 794,480 L 795,481 L 795,482 L 795,481 L 794,480 Z"/><path d="M 783,480 L 782,481 L 783,481 Z"/><path d="M 780,480 Z"/><path d="M 757,480 L 757,481 L 758,482 L 759,482 L 758,482 L 757,481 L 758,480 Z"/><path d="M 752,480 L 753,481 L 752,482 L 753,482 L 754,483 L 753,482 L 753,480 Z"/><path d="M 742,480 Z"/><path d="M 740,480 Z"/><path d="M 709,480 L 710,481 L 712,481 L 711,481 L 710,480 Z"/><path d="M 698,480 L 700,480 Z"/><path d="M 582,480 L 582,481 Z"/><path d="M 575,480 Z"/><path d="M 566,480 Z"/><path d="M 562,480 L 564,480 Z"/><path d="M 517,480 Z"/><path d="M 510,480 Z"/><path d="M 477,480 L 478,481 Z"/><path d="M 465,480 L 468,480 Z"/><path d="M 454,480 L 454,482 L 456,484 L 454,486 L 453,486 L 451,488 L 450,488 L 449,487 L 449,486 L 449,487 L 450,488 L 450,489 L 449,490 L 448,490 L 447,489 L 447,484 L 433,484 L 433,543 L 434,544 L 448,544 L 448,508 L 449,507 L 449,503 L 450,502 L 450,501 L 452,499 L 454,501 L 454,502 L 453,503 L 454,502 L 454,501 L 455,500 L 453,498 L 456,495 L 459,495 L 460,494 L 463,494 L 464,495 L 467,495 L 470,498 L 468,500 L 470,498 L 472,500 L 472,501 L 471,502 L 472,501 L 473,502 L 473,504 L 474,505 L 474,544 L 480,544 L 481,543 L 483,543 L 484,544 L 488,544 L 488,500 L 487,499 L 487,496 L 488,495 L 487,496 L 486,495 L 486,493 L 487,492 L 486,493 L 485,492 L 485,491 L 486,490 L 485,491 L 479,485 L 480,484 L 479,483 L 480,484 L 479,485 L 478,485 L 476,483 L 473,483 L 472,482 L 462,482 L 461,483 L 459,483 L 458,484 L 456,484 L 454,482 L 455,481 L 455,480 Z"/><path d="M 448,480 L 448,481 Z"/><path d="M 444,480 L 445,480 Z"/><path d="M 442,480 Z"/><path d="M 393,480 Z"/><path d="M 385,480 Z"/><path d="M 381,480 L 382,481 L 382,482 L 384,482 L 385,483 L 384,484 L 383,484 L 382,485 L 381,485 L 380,486 L 379,486 L 377,488 L 376,488 L 375,489 L 374,488 L 370,492 L 371,491 L 372,492 L 372,493 L 370,495 L 370,496 L 368,498 L 367,497 L 368,498 L 368,499 L 367,500 L 367,502 L 366,503 L 366,506 L 365,507 L 365,522 L 366,523 L 366,526 L 365,527 L 366,526 L 367,527 L 367,528 L 368,529 L 368,530 L 369,531 L 369,532 L 368,533 L 369,532 L 377,540 L 376,541 L 377,540 L 378,540 L 380,542 L 381,542 L 382,543 L 381,544 L 382,543 L 384,543 L 385,544 L 388,544 L 389,545 L 405,545 L 406,544 L 409,544 L 410,543 L 412,543 L 413,542 L 414,542 L 415,541 L 416,541 L 417,542 L 416,541 L 417,540 L 417,538 L 418,537 L 417,538 L 416,537 L 416,535 L 415,534 L 415,532 L 416,531 L 416,530 L 416,531 L 415,532 L 414,531 L 413,531 L 412,532 L 410,532 L 409,533 L 406,533 L 405,534 L 393,534 L 392,533 L 390,533 L 389,532 L 390,531 L 389,532 L 388,532 L 387,531 L 388,530 L 387,531 L 386,530 L 385,530 L 383,528 L 383,527 L 384,526 L 383,527 L 382,526 L 382,525 L 381,524 L 381,523 L 382,522 L 381,523 L 380,522 L 380,520 L 381,519 L 382,520 L 383,520 L 384,521 L 420,521 L 384,521 L 383,520 L 384,519 L 421,519 L 422,520 L 421,519 L 421,515 L 422,514 L 422,509 L 423,508 L 423,507 L 423,508 L 422,509 L 421,508 L 421,503 L 422,502 L 422,501 L 422,502 L 421,503 L 420,502 L 420,500 L 419,499 L 419,497 L 418,496 L 418,495 L 420,493 L 418,495 L 416,493 L 416,492 L 417,491 L 416,490 L 415,491 L 411,487 L 412,486 L 411,487 L 410,487 L 408,485 L 409,484 L 408,485 L 407,485 L 406,484 L 407,483 L 406,484 L 404,484 L 403,483 L 400,483 L 399,482 L 400,481 L 401,481 L 400,481 L 399,482 L 389,482 L 388,481 L 389,482 L 388,483 L 385,483 L 384,482 L 383,482 Z"/><path d="M 40,480 L 40,483 Z"/><path d="M 655,479 Z"/><path d="M 622,479 Z"/><path d="M 344,479 Z"/><path d="M 652,478 Z"/><path d="M 340,478 Z"/><path d="M 245,478 L 245,484 L 246,483 L 246,479 Z"/><path d="M 857,477 Z"/><path d="M 854,477 L 854,479 L 853,480 L 852,480 L 854,480 L 854,478 L 855,477 Z"/><path d="M 648,477 L 649,478 L 648,479 L 650,477 Z"/><path d="M 625,477 Z"/><path d="M 510,477 L 514,477 L 515,478 L 514,477 Z"/><path d="M 861,476 Z"/><path d="M 849,476 L 849,477 Z"/><path d="M 655,476 L 655,477 Z"/><path d="M 653,476 Z"/><path d="M 603,476 L 602,477 L 603,476 L 604,477 Z"/><path d="M 350,476 Z"/><path d="M 341,476 L 342,476 Z"/><path d="M 852,475 L 851,476 Z"/><path d="M 509,475 Z"/><path d="M 337,475 L 339,475 Z"/><path d="M 40,475 Z"/><path d="M 647,474 Z"/><path d="M 627,474 Z"/><path d="M 603,474 Z"/><path d="M 341,474 Z"/><path d="M 285,474 L 286,475 Z"/><path d="M 643,473 L 641,475 L 640,474 L 641,475 L 644,475 L 643,475 L 642,474 L 643,473 L 644,473 Z"/><path d="M 336,473 L 338,473 Z"/><path d="M 316,473 Z"/><path d="M 655,472 Z"/><path d="M 350,472 Z"/><path d="M 327,472 L 330,472 Z"/><path d="M 321,472 L 325,472 Z"/><path d="M 288,471 Z"/><path d="M 40,471 L 40,473 Z"/><path d="M 867,469 Z"/><path d="M 40,469 Z"/><path d="M 844,467 L 844,468 Z"/><path d="M 290,467 Z"/><path d="M 352,466 Z"/><path d="M 846,464 L 846,467 Z"/><path d="M 40,464 L 40,467 Z"/><path d="M 352,462 Z"/><path d="M 245,462 L 245,474 L 246,475 L 245,476 L 246,475 L 245,474 L 245,473 L 246,472 L 246,469 L 245,468 L 246,467 L 246,462 Z"/><path d="M 350,461 Z"/><path d="M 300,461 Z"/><path d="M 245,460 Z"/><path d="M 348,459 L 349,459 Z"/><path d="M 854,458 L 853,459 L 852,459 L 851,460 L 850,460 L 849,461 L 848,460 L 847,461 L 848,462 L 848,469 L 849,470 L 849,471 L 848,472 L 849,473 L 850,472 L 851,472 L 852,473 L 853,473 L 854,474 L 857,474 L 858,473 L 860,473 L 861,474 L 860,473 L 863,470 L 863,469 L 864,468 L 864,464 L 863,463 L 863,462 L 860,459 L 859,459 L 858,458 Z"/><path d="M 648,458 Z"/><path d="M 630,458 L 629,459 L 625,459 L 624,460 L 621,460 L 620,459 L 621,460 L 620,461 L 619,461 L 618,462 L 617,462 L 615,464 L 614,464 L 613,463 L 612,464 L 613,465 L 610,468 L 608,466 L 609,467 L 608,468 L 609,469 L 609,470 L 607,472 L 607,474 L 606,475 L 605,474 L 606,475 L 606,478 L 605,479 L 605,486 L 606,487 L 606,491 L 605,492 L 606,491 L 607,492 L 607,493 L 606,494 L 607,493 L 609,495 L 609,496 L 613,500 L 611,502 L 610,501 L 611,502 L 613,500 L 614,501 L 615,501 L 616,502 L 615,503 L 616,502 L 617,502 L 618,503 L 619,503 L 620,504 L 621,504 L 622,505 L 624,505 L 625,506 L 627,506 L 628,507 L 630,507 L 631,508 L 630,509 L 631,508 L 634,508 L 635,509 L 636,509 L 637,510 L 638,510 L 639,511 L 638,512 L 639,511 L 640,512 L 641,512 L 644,515 L 644,516 L 645,517 L 645,524 L 644,525 L 644,526 L 642,528 L 641,527 L 642,528 L 639,531 L 638,531 L 637,532 L 635,532 L 634,531 L 632,531 L 634,531 L 635,532 L 634,533 L 620,533 L 619,532 L 617,532 L 616,531 L 617,530 L 616,531 L 613,531 L 612,530 L 611,530 L 610,529 L 609,529 L 608,528 L 608,530 L 607,531 L 607,533 L 606,534 L 606,536 L 605,537 L 605,540 L 606,540 L 607,541 L 608,541 L 609,542 L 608,543 L 607,543 L 608,543 L 609,542 L 610,542 L 611,543 L 613,543 L 614,544 L 613,545 L 614,544 L 619,544 L 620,545 L 637,545 L 638,544 L 640,544 L 641,543 L 643,543 L 644,542 L 645,542 L 646,541 L 647,541 L 648,540 L 649,540 L 650,539 L 651,540 L 650,539 L 655,534 L 655,533 L 657,531 L 657,530 L 658,529 L 658,527 L 659,526 L 659,521 L 660,520 L 660,519 L 659,518 L 659,513 L 658,512 L 658,510 L 659,509 L 658,510 L 657,509 L 657,508 L 658,507 L 657,508 L 655,506 L 655,505 L 654,504 L 653,504 L 650,501 L 651,500 L 650,501 L 649,501 L 647,499 L 648,498 L 647,499 L 646,499 L 645,498 L 644,498 L 643,497 L 644,496 L 643,497 L 641,497 L 640,496 L 638,496 L 637,495 L 636,495 L 635,494 L 637,492 L 636,491 L 634,491 L 633,490 L 634,491 L 636,491 L 637,492 L 635,494 L 633,494 L 632,493 L 630,493 L 629,492 L 628,492 L 627,491 L 626,491 L 624,489 L 623,489 L 621,487 L 621,486 L 620,485 L 620,478 L 624,474 L 625,475 L 624,474 L 626,472 L 628,472 L 629,473 L 628,472 L 629,471 L 635,471 L 636,470 L 637,471 L 638,470 L 639,471 L 645,471 L 646,472 L 648,472 L 649,473 L 650,473 L 651,474 L 652,474 L 652,473 L 653,472 L 653,470 L 654,469 L 654,467 L 655,466 L 655,463 L 654,462 L 655,461 L 654,462 L 653,462 L 652,461 L 653,460 L 652,461 L 650,461 L 649,460 L 647,460 L 646,459 L 642,459 L 641,458 Z"/><path d="M 510,458 L 509,459 L 508,459 L 505,462 L 505,465 L 504,466 L 504,467 L 505,468 L 505,470 L 507,472 L 506,473 L 507,472 L 508,473 L 510,473 L 511,474 L 515,474 L 516,473 L 517,473 L 518,474 L 517,473 L 520,470 L 520,468 L 521,467 L 521,466 L 520,465 L 520,462 L 517,459 L 515,459 L 514,458 Z"/><path d="M 342,458 Z"/><path d="M 305,458 L 304,459 L 305,460 L 304,459 Z"/><path d="M 860,457 Z"/><path d="M 852,457 Z"/><path d="M 616,457 L 617,458 L 618,458 L 617,457 Z"/><path d="M 338,457 Z"/><path d="M 315,457 Z"/><path d="M 857,456 Z"/><path d="M 855,456 Z"/><path d="M 645,456 Z"/><path d="M 625,456 L 626,456 L 627,457 L 628,457 L 627,457 L 626,456 Z"/><path d="M 622,456 L 623,456 Z"/><path d="M 512,456 L 514,456 Z"/><path d="M 340,456 L 341,456 Z"/><path d="M 331,456 Z"/><path d="M 321,456 Z"/><path d="M 313,456 Z"/><path d="M 310,456 L 309,457 L 310,457 L 312,459 L 311,460 L 309,460 L 308,459 L 309,460 L 308,461 L 307,461 L 306,462 L 304,462 L 303,461 L 304,462 L 302,464 L 301,464 L 300,465 L 299,465 L 298,464 L 299,465 L 297,467 L 296,467 L 294,465 L 294,464 L 294,465 L 295,466 L 294,467 L 295,468 L 288,475 L 288,476 L 285,479 L 284,478 L 285,479 L 285,480 L 284,481 L 284,482 L 283,483 L 282,482 L 283,483 L 283,484 L 282,485 L 280,483 L 280,481 L 280,483 L 282,485 L 282,487 L 281,488 L 281,490 L 280,491 L 280,495 L 279,496 L 279,508 L 280,509 L 280,513 L 281,514 L 281,517 L 282,518 L 282,519 L 283,520 L 283,521 L 284,522 L 284,523 L 285,524 L 285,525 L 286,526 L 286,527 L 285,528 L 286,527 L 288,529 L 288,530 L 287,531 L 288,530 L 295,537 L 293,539 L 292,538 L 293,539 L 293,540 L 293,539 L 295,537 L 296,537 L 298,539 L 297,540 L 298,539 L 299,539 L 300,540 L 301,540 L 302,541 L 303,541 L 304,542 L 306,542 L 307,543 L 306,544 L 307,543 L 309,543 L 310,544 L 314,544 L 315,545 L 333,545 L 334,544 L 339,544 L 340,543 L 342,543 L 343,542 L 345,542 L 346,541 L 348,541 L 349,540 L 350,540 L 351,539 L 352,539 L 353,538 L 353,504 L 352,503 L 352,499 L 353,498 L 323,498 L 322,497 L 322,509 L 338,509 L 339,510 L 339,515 L 340,516 L 340,529 L 337,532 L 335,532 L 334,533 L 329,533 L 328,534 L 321,534 L 320,533 L 316,533 L 315,532 L 313,532 L 312,531 L 311,531 L 310,530 L 309,530 L 307,528 L 308,527 L 307,528 L 306,528 L 300,522 L 300,521 L 301,520 L 300,521 L 298,519 L 298,518 L 297,517 L 297,516 L 296,515 L 296,513 L 295,512 L 295,508 L 294,507 L 294,498 L 295,497 L 296,498 L 296,501 L 296,498 L 295,497 L 295,492 L 296,491 L 296,489 L 298,487 L 298,486 L 299,485 L 301,487 L 302,486 L 303,487 L 303,486 L 302,486 L 301,487 L 299,485 L 299,484 L 300,483 L 301,484 L 300,483 L 300,482 L 306,476 L 307,476 L 309,478 L 308,479 L 307,479 L 308,479 L 309,478 L 307,476 L 309,474 L 310,474 L 311,475 L 310,474 L 311,473 L 312,473 L 313,472 L 314,472 L 315,471 L 318,471 L 319,470 L 334,470 L 335,471 L 339,471 L 340,472 L 342,472 L 343,473 L 345,473 L 346,474 L 344,476 L 345,475 L 346,476 L 345,475 L 346,474 L 348,474 L 348,471 L 349,470 L 349,468 L 350,467 L 351,468 L 350,467 L 350,463 L 349,463 L 348,462 L 347,462 L 346,461 L 345,461 L 344,460 L 345,459 L 344,460 L 341,460 L 340,459 L 337,459 L 336,458 L 328,458 L 327,457 L 326,458 L 317,458 L 316,459 L 312,459 L 310,457 Z"/><path d="M 40,456 L 40,461 Z"/><path d="M 245,455 L 246,456 L 246,457 L 246,456 Z"/><path d="M 40,453 Z"/><path d="M 40,451 Z"/><path d="M 245,449 Z"/><path d="M 40,442 L 40,443 Z"/><path d="M 40,437 Z"/><path d="M 40,433 L 40,435 Z"/><path d="M 219,425 Z"/><path d="M 40,425 L 40,427 Z"/><path d="M 211,417 Z"/><path d="M 204,412 Z"/><path d="M 202,410 Z"/><path d="M 200,410 Z"/><path d="M 194,402 Z"/><path d="M 45,400 Z"/><path d="M 190,399 L 191,399 Z"/><path d="M 53,399 L 52,400 L 50,400 L 49,401 L 48,401 L 46,403 L 45,403 L 45,404 L 44,405 L 44,406 L 43,407 L 43,408 L 42,409 L 41,408 L 41,407 L 41,408 L 42,409 L 42,576 L 43,577 L 43,579 L 44,580 L 44,581 L 48,585 L 49,585 L 50,586 L 48,588 L 50,586 L 53,586 L 54,587 L 53,588 L 51,588 L 49,590 L 51,588 L 53,588 L 54,587 L 152,587 L 153,588 L 151,590 L 150,589 L 149,590 L 147,590 L 147,591 L 150,591 L 151,590 L 152,590 L 153,591 L 154,591 L 154,590 L 155,589 L 156,590 L 156,591 L 158,589 L 159,589 L 161,591 L 162,590 L 165,590 L 165,588 L 167,586 L 168,587 L 168,589 L 170,589 L 170,587 L 171,586 L 172,587 L 172,588 L 173,588 L 174,589 L 173,590 L 172,590 L 172,591 L 173,590 L 174,591 L 175,591 L 174,591 L 173,590 L 174,589 L 175,589 L 175,587 L 175,588 L 174,589 L 173,588 L 173,583 L 172,582 L 173,581 L 174,581 L 175,580 L 181,580 L 182,581 L 183,581 L 184,582 L 184,583 L 183,584 L 182,583 L 181,583 L 180,582 L 176,582 L 176,583 L 177,583 L 178,582 L 179,583 L 180,583 L 181,584 L 181,585 L 181,584 L 182,583 L 183,584 L 184,584 L 185,583 L 186,584 L 186,585 L 185,586 L 186,585 L 187,586 L 187,588 L 188,589 L 188,594 L 189,595 L 189,598 L 188,599 L 189,598 L 193,602 L 201,602 L 202,601 L 204,601 L 205,600 L 205,599 L 206,598 L 206,595 L 207,594 L 208,595 L 208,597 L 208,594 L 207,593 L 207,589 L 208,588 L 210,590 L 213,587 L 214,587 L 213,586 L 215,584 L 216,585 L 218,583 L 219,584 L 222,581 L 223,581 L 224,582 L 223,583 L 224,584 L 223,585 L 225,583 L 228,586 L 227,587 L 228,588 L 228,591 L 230,591 L 231,590 L 237,590 L 231,590 L 230,591 L 229,590 L 229,589 L 230,588 L 237,588 L 238,587 L 239,587 L 243,583 L 244,584 L 246,582 L 245,581 L 245,579 L 247,577 L 247,575 L 246,574 L 247,575 L 247,576 L 246,577 L 244,575 L 244,574 L 239,569 L 239,568 L 238,567 L 238,560 L 239,559 L 239,558 L 240,557 L 241,558 L 241,560 L 241,559 L 242,558 L 243,559 L 243,557 L 242,558 L 241,558 L 240,557 L 240,556 L 242,554 L 243,555 L 244,554 L 245,555 L 245,557 L 246,558 L 245,559 L 247,557 L 247,556 L 248,555 L 248,554 L 247,553 L 248,552 L 250,552 L 251,553 L 252,552 L 253,552 L 254,551 L 255,551 L 254,550 L 255,549 L 256,549 L 257,550 L 256,549 L 258,547 L 258,545 L 259,544 L 260,545 L 260,546 L 261,547 L 261,546 L 260,545 L 262,543 L 261,542 L 261,540 L 260,541 L 260,543 L 259,544 L 258,543 L 258,540 L 259,539 L 259,538 L 259,539 L 258,540 L 257,539 L 257,537 L 256,536 L 256,535 L 255,534 L 255,533 L 254,532 L 255,531 L 256,531 L 256,530 L 255,531 L 253,529 L 254,528 L 255,528 L 250,528 L 249,529 L 248,529 L 247,528 L 247,527 L 246,526 L 244,526 L 243,527 L 244,528 L 245,528 L 246,529 L 248,529 L 249,530 L 248,531 L 245,531 L 244,530 L 243,530 L 241,528 L 241,527 L 240,526 L 240,525 L 243,522 L 243,519 L 243,521 L 242,522 L 242,523 L 240,525 L 239,524 L 239,523 L 238,522 L 238,515 L 237,514 L 238,513 L 238,512 L 239,511 L 241,511 L 242,512 L 240,514 L 240,515 L 241,516 L 240,517 L 241,518 L 240,519 L 240,520 L 241,519 L 241,518 L 242,517 L 242,516 L 241,516 L 240,515 L 240,514 L 242,512 L 243,513 L 243,511 L 244,510 L 244,509 L 245,508 L 245,506 L 244,505 L 244,501 L 243,500 L 243,457 L 242,456 L 242,455 L 243,454 L 242,455 L 241,454 L 241,453 L 240,452 L 242,450 L 242,449 L 241,448 L 241,449 L 240,450 L 229,439 L 230,438 L 229,439 L 226,436 L 225,437 L 223,435 L 224,434 L 222,432 L 223,431 L 222,430 L 221,431 L 219,429 L 220,428 L 219,429 L 211,421 L 212,420 L 211,421 L 207,417 L 206,418 L 203,415 L 204,414 L 203,415 L 201,413 L 202,412 L 201,413 L 200,412 L 199,412 L 198,411 L 198,410 L 196,408 L 195,408 L 187,400 L 186,400 L 185,399 Z"/><path d="M 49,397 L 50,398 L 51,398 L 50,398 Z"/><path d="M 184,396 Z"/><path d="M 180,396 L 181,396 Z"/><path d="M 172,396 L 173,396 Z"/><path d="M 164,396 Z"/><path d="M 156,396 L 161,396 Z"/><path d="M 140,396 L 154,396 Z"/><path d="M 132,396 L 137,396 Z"/><path d="M 124,396 L 126,396 Z"/><path d="M 116,396 L 118,396 Z"/><path d="M 112,396 L 113,396 Z"/><path d="M 108,396 Z"/><path d="M 104,396 Z"/><path d="M 100,396 L 102,396 Z"/><path d="M 92,396 L 93,396 Z"/><path d="M 86,396 L 89,396 Z"/><path d="M 84,396 Z"/><path d="M 80,396 L 81,396 Z"/><path d="M 75,396 L 78,396 Z"/><path d="M 55,396 L 73,396 Z"/><path d="M 53,396 Z"/><path d="M 128,395 L 128,396 L 130,396 L 130,395 L 129,396 Z"/><path d="M 98,395 L 97,396 L 95,396 L 96,397 L 97,396 L 98,396 Z"/></svg>